<?xml version="1.0" encoding="UTF-8" standalone="no"?><!-- Generator: Gravit.io --><svg xmlns="http://www.w3.org/2000/svg" xmlns:xlink="http://www.w3.org/1999/xlink" style="isolation:isolate" viewBox="0 0 24 24" width="24pt" height="24pt"><circle vector-effect="non-scaling-stroke" cx="12" cy="12" r="12" id="Oval" fill="rgb(255,255,255)"/><mask id="_mask_fc579hl65OMRypVfLIf3BChrKfnujHvN" x="-200%" y="-200%" width="400%" height="400%"><rect x="-200%" y="-200%" width="400%" height="400%" style="fill:white;"/><path d=" M 12 3 C 7.029 3 3 7.029 3 12 C 3 16.971 7.029 21 12 21 C 16.971 21 21 16.971 21 12 C 21 9.613 20.052 7.324 18.364 5.636 C 16.676 3.948 14.387 3 12 3 Z " id="Path_18926" fill="black" stroke="none"/></mask><path d=" M 12 3 C 7.029 3 3 7.029 3 12 C 3 16.971 7.029 21 12 21 C 16.971 21 21 16.971 21 12 C 21 9.613 20.052 7.324 18.364 5.636 C 16.676 3.948 14.387 3 12 3 Z " id="Path_18926" fill="rgb(255,255,255)"/><path d=" M 12 3 C 7.029 3 3 7.029 3 12 C 3 16.971 7.029 21 12 21 C 16.971 21 21 16.971 21 12 C 21 9.613 20.052 7.324 18.364 5.636 C 16.676 3.948 14.387 3 12 3 Z " id="Path_18926" fill="rgb(255,255,255)" mask="url(#_mask_fc579hl65OMRypVfLIf3BChrKfnujHvN)" vector-effect="non-scaling-stroke" stroke-width="3" stroke="rgb(0,197,140)" stroke-linejoin="miter" stroke-linecap="butt" stroke-miterlimit="4"/></svg>