<?xml version="1.0" encoding="utf-8"?>
<!-- Generator: Adobe Illustrator 24.1.1, SVG Export Plug-In . SVG Version: 6.00 Build 0)  -->
<!DOCTYPE svg PUBLIC "-//W3C//DTD SVG 1.1//EN" "http://www.w3.org/Graphics/SVG/1.1/DTD/svg11.dtd" [
	<!ENTITY ns_extend "http://ns.adobe.com/Extensibility/1.0/">
	<!ENTITY ns_ai "http://ns.adobe.com/AdobeIllustrator/10.0/">
	<!ENTITY ns_graphs "http://ns.adobe.com/Graphs/1.0/">
	<!ENTITY ns_vars "http://ns.adobe.com/Variables/1.0/">
	<!ENTITY ns_imrep "http://ns.adobe.com/ImageReplacement/1.0/">
	<!ENTITY ns_sfw "http://ns.adobe.com/SaveForWeb/1.0/">
	<!ENTITY ns_custom "http://ns.adobe.com/GenericCustomNamespace/1.0/">
	<!ENTITY ns_adobe_xpath "http://ns.adobe.com/XPath/1.0/">
]>
<svg version="1.1" id="Layer_1" xmlns:x="&ns_extend;" xmlns:i="&ns_ai;" xmlns:graph="&ns_graphs;"
	 xmlns="http://www.w3.org/2000/svg" xmlns:xlink="http://www.w3.org/1999/xlink" x="0px" y="0px" viewBox="0 0 24 24"
	 style="enable-background:new 0 0 24 24;" xml:space="preserve">
<style type="text/css">
	.st0{fill:#FFFFFF;}
</style>
<metadata>
	<sfw  xmlns="&ns_sfw;">
		<slices></slices>
		<sliceSourceBounds  bottomLeftOrigin="true" height="20.2" width="11.6" x="6.2" y="1.9"></sliceSourceBounds>
		<optimizationSettings>
			<targetSettings  fileFormat="PNG24Format" targetSettingsID="0">
				<PNG24Format  filtered="false" interlaced="true" matteColor="#FFFFFF" noMatteColor="false" transparency="true">
					</PNG24Format>
			</targetSettings>
		</optimizationSettings>
	</sfw>
</metadata>
<g>
	<path class="st0" d="M12,12.8C12,12.8,12,12.8,12,12.8c-1.2,0-2.1,0.9-2.1,2.1C9.9,16,10.8,17,12,17c0,0,0,0,0,0
		c1.2,0,2.1-0.9,2.1-2.1C14.1,13.7,13.2,12.8,12,12.8z"/>
	<g>
		<path class="st0" d="M12,11.5L12,11.5C12,11.5,12,11.5,12,11.5c0.4,0,0.7,0.1,1.1,0.2V6.3c0-0.6-0.5-1.1-1.1-1.1s-1.1,0.5-1.1,1.1
			v5.4C11.3,11.6,11.6,11.5,12,11.5z"/>
		<path class="st0" d="M10.1,12.1l-1.7-1.7V3c0-0.6-0.5-1.1-1.1-1.1S6.2,2.4,6.2,3v7.8c0,0,0,0.1,0,0.1c0,0,0,0,0,0c0,0,0,0,0,0.1
			c0,0,0,0,0,0.1c0,0,0,0,0,0.1c0,0,0,0,0,0.1c0,0,0,0,0,0c0,0,0,0,0,0c0,0,0,0,0,0c0,0,0,0,0,0c0,0,0,0,0,0c0,0,0,0,0,0
			c0,0,0,0,0,0c0,0,0,0.1,0.1,0.1l2.3,2.3C9,13.1,9.5,12.5,10.1,12.1z"/>
		<path class="st0" d="M13.1,22.1v-4c-0.3,0.1-0.7,0.2-1.1,0.2c-0.4,0-0.7-0.1-1.1-0.2v4H13.1z"/>
		<path class="st0" d="M16.7,1.9c-0.6,0-1.1,0.5-1.1,1.1v7.4l-1.7,1.7c0.2,0.1,0.3,0.3,0.5,0.4c0.4,0.4,0.7,0.9,0.8,1.4l2.3-2.3
			c0,0,0,0,0,0c0,0,0-0.1,0.1-0.1c0,0,0,0,0,0c0,0,0,0,0,0c0,0,0,0,0,0c0,0,0,0,0,0c0,0,0,0,0-0.1c0,0,0,0,0,0c0,0,0,0,0,0
			c0,0,0,0,0-0.1c0,0,0,0,0-0.1c0,0,0,0,0-0.1c0,0,0,0,0-0.1c0,0,0,0,0,0c0,0,0-0.1,0-0.1c0,0,0,0,0,0V3C17.8,2.4,17.3,1.9,16.7,1.9
			z"/>
	</g>
</g>
</svg>
