<?xml version="1.0" encoding="utf-8"?>
<!-- Generator: Adobe Illustrator 13.0.0, SVG Export Plug-In . SVG Version: 6.00 Build 14948)  -->
<!DOCTYPE svg PUBLIC "-//W3C//DTD SVG 1.1//EN" "http://www.w3.org/Graphics/SVG/1.1/DTD/svg11.dtd">
<svg version="1.1" id="Layer_1" xmlns="http://www.w3.org/2000/svg" xmlns:xlink="http://www.w3.org/1999/xlink" x="0px" y="0px"
	 width="24px" height="30px" viewBox="0 0 24 30" enable-background="new 0 0 24 30" xml:space="preserve">
<title>Master Active</title>
<desc>Created with Sketch.</desc>
<g id="Master-Active">
	<g id="Group-2" transform="translate(1.000000, 7.000000)">
		<linearGradient id="Path_18873_1_" gradientUnits="userSpaceOnUse" x1="10.9956" y1="21.9814" x2="10.9956" y2="4.882813e-004">
			<stop  offset="0" style="stop-color:#000000"/>
			<stop  offset="1" style="stop-color:#800000"/>
		</linearGradient>
		<path id="Path_18873" fill="url(#Path_18873_1_)" d="M20.408,15.352c0.388-1.082,0.585-2.223,0.582-3.373
			c-0.023-4.38-2.876-8.243-7.056-9.556C13.658,1.016,12.425,0,10.99,0C9.556,0,8.322,1.016,8.046,2.423
			C5.438,3.228,3.271,5.063,2.049,7.505c-1.222,2.44-1.394,5.275-0.476,7.847c-1.036,0.558-1.649,1.672-1.566,2.846
			c0.083,1.174,0.848,2.19,1.953,2.597c1.105,0.405,2.345,0.126,3.169-0.715c3.496,2.536,8.226,2.536,11.722,0
			c0.822,0.847,2.066,1.131,3.174,0.726c1.109-0.405,1.876-1.425,1.959-2.602c0.082-1.178-0.535-2.295-1.576-2.85V15.352z
			 M10.99,1.979c0.553,0,1,0.448,1,1s-0.447,1-1,1c-0.552,0-1-0.448-1-1S10.438,1.979,10.99,1.979z M2.99,18.979
			c-0.552,0-1-0.447-1-1c0-0.552,0.448-1,1-1c0.553,0,1,0.448,1,1C3.99,18.531,3.543,18.979,2.99,18.979z M10.99,19.979
			c-1.829-0.001-3.602-0.631-5.022-1.782c0-0.073,0.022-0.144,0.022-0.218c0-1.416-0.992-2.639-2.378-2.933
			c-0.854-2.034-0.828-4.333,0.075-6.347s2.6-3.563,4.688-4.279c0.52,0.96,1.523,1.558,2.614,1.558c1.092,0,2.095-0.598,2.615-1.558
			c3.212,1.129,5.368,4.154,5.386,7.559c-0.001,1.055-0.213,2.097-0.621,3.067c-1.387,0.294-2.378,1.517-2.379,2.933
			c0,0.074,0.018,0.145,0.022,0.218C14.592,19.348,12.819,19.978,10.99,19.979z M18.99,18.979c-0.553,0-1-0.447-1-1
			c0-0.552,0.447-1,1-1s1,0.448,1,1C19.99,18.531,19.543,18.979,18.99,18.979z"/>
		<linearGradient id="Path_18874_1_" gradientUnits="userSpaceOnUse" x1="10.9907" y1="15.9785" x2="10.9907" y2="7.6284">
			<stop  offset="0" style="stop-color:#000000"/>
			<stop  offset="1" style="stop-color:#800000"/>
		</linearGradient>
		<polygon id="Path_18874" fill="url(#Path_18874_1_)" points="15.99,15.979 15.99,7.628 10.99,11.691 5.99,7.628 5.99,15.979 
			7.99,15.979 7.99,11.83 10.99,14.268 13.99,11.831 13.99,15.979 		"/>
	</g>
</g>
</svg>
