<?xml version="1.0" encoding="utf-8"?>
<!-- Generator: Adobe Illustrator 13.0.0, SVG Export Plug-In . SVG Version: 6.00 Build 14948)  -->
<!DOCTYPE svg PUBLIC "-//W3C//DTD SVG 1.1//EN" "http://www.w3.org/Graphics/SVG/1.1/DTD/svg11.dtd">
<svg version="1.1" id="Layer_1" xmlns="http://www.w3.org/2000/svg" xmlns:xlink="http://www.w3.org/1999/xlink" x="0px" y="0px"
	 width="40px" height="26px" viewBox="0 0 40 26" enable-background="new 0 0 40 26" xml:space="preserve">
<g id="switch_on" transform="rotate(180 20 10.5)">
	<path id="switch_path" opacity="0.5" fill="#505050" enable-background="new    " d="M34,10.223c0.024,3.842-3.072,6.976-6.914,7
		c-0.029,0-0.058,0-0.086,0H7c-3.842,0.024-6.977-3.072-7-6.914c0-0.029,0-0.057,0-0.086c-0.023-3.842,3.072-6.976,6.914-7
		c0.028,0,0.057,0,0.086,0h20c3.842-0.023,6.976,3.072,7,6.914C34,10.166,34,10.194,34,10.223z"/>
	<g transform="rotate(180 20 10.5)">
		<path id="switch_button-2" fill="#505050" d="M13,21C7.477,21,3,16.523,3,11C3,5.477,7.477,1,13,1s10,4.477,10,10
			C23,16.523,18.523,21,13,21z"/>
	</g>
</g>
</svg>
